# Blender 4.2.1 LTS
# www.blender.org
mtllib bigWall.mtl
o Cube
v -1.178973 0.000000 2.000000
v -2.000000 0.000000 1.178973
v -2.000000 4.000000 1.178973
v -1.178973 4.000000 2.000000
v -2.000000 0.000000 -1.178973
v -1.178973 0.000000 -2.000000
v -1.178973 4.000000 -2.000000
v -2.000000 4.000000 -1.178973
v 2.000000 0.000000 1.178973
v 1.178973 0.000000 2.000000
v 1.178973 4.000000 2.000000
v 2.000000 4.000000 1.178973
v 1.178973 0.000000 -2.000000
v 2.000000 0.000000 -1.178973
v 2.000000 4.000000 -1.178973
v 1.178973 4.000000 -2.000000
vn -0.0000 -0.0000 1.0000
vn 1.0000 -0.0000 -0.0000
vn -0.0000 1.0000 -0.0000
vn -1.0000 -0.0000 -0.0000
vn -0.0000 -0.0000 -1.0000
vn -0.7071 -0.0000 0.7071
vn -0.7071 -0.0000 -0.7071
vn 0.7071 -0.0000 -0.7071
vn 0.7071 -0.0000 0.7071
vn -0.0000 -1.0000 -0.0000
vt 0.375000 0.801314
vt 0.625000 0.801314
vt 0.625000 0.948686
vt 0.375000 0.948686
vt 0.375000 0.551314
vt 0.625000 0.551314
vt 0.625000 0.698686
vt 0.375000 0.698686
vt 0.676314 0.500000
vt 0.823686 0.500000
vt 0.875000 0.551314
vt 0.875000 0.698686
vt 0.823686 0.750000
vt 0.676314 0.750000
vt 0.375000 0.051314
vt 0.625000 0.051314
vt 0.625000 0.198686
vt 0.375000 0.198686
vt 0.375000 0.301314
vt 0.625000 0.301314
vt 0.625000 0.448686
vt 0.375000 0.448686
vt 0.375000 0.000000
vt 0.625000 0.000000
vt 0.125000 0.551314
vt 0.176314 0.500000
vt 0.323686 0.500000
vt 0.323686 0.750000
vt 0.176314 0.750000
vt 0.125000 0.698686
s 0
usemtl Material
f 10/1/1 11/2/1 4/3/1 1/4/1
f 14/5/2 15/6/2 12/7/2 9/8/2
f 15/6/3 16/9/3 7/10/3 8/11/3 3/12/3 4/13/3 11/14/3 12/7/3
f 2/15/4 3/16/4 8/17/4 5/18/4
f 6/19/5 7/20/5 16/21/5 13/22/5
f 1/23/6 4/24/6 3/16/6 2/15/6
f 7/20/7 6/19/7 5/18/7 8/17/7
f 15/6/8 14/5/8 13/22/8 16/21/8
f 11/2/9 10/1/9 9/8/9 12/7/9
f 5/25/10 6/26/10 13/27/10 14/5/10 9/8/10 10/28/10 1/29/10 2/30/10
