# Blender 4.2.1 LTS
# www.blender.org
mtllib Red.mtl
o Cube
v -0.130026 0.212599 0.137661
v -0.173106 0.712599 0.183271
v -0.130026 0.212599 -0.137661
v -0.173106 0.712599 -0.183271
v 0.130026 0.212599 0.137661
v 0.173106 0.712599 0.183271
v 0.130026 0.212599 -0.137661
v 0.173106 0.712599 -0.183271
vn -0.9963 -0.0858 -0.0000
vn -0.0000 -0.0908 -0.9959
vn 0.9963 -0.0858 -0.0000
vn -0.0000 -0.0908 0.9959
vn -0.0000 -1.0000 -0.0000
vn -0.0000 1.0000 -0.0000
vt 0.375000 0.000000
vt 0.625000 0.000000
vt 0.625000 0.250000
vt 0.375000 0.250000
vt 0.625000 0.500000
vt 0.375000 0.500000
vt 0.625000 0.750000
vt 0.375000 0.750000
vt 0.625000 1.000000
vt 0.375000 1.000000
vt 0.125000 0.500000
vt 0.125000 0.750000
vt 0.875000 0.500000
vt 0.875000 0.750000
s 0
usemtl Material.001
f 1/1/1 2/2/1 4/3/1 3/4/1
f 3/4/2 4/3/2 8/5/2 7/6/2
f 7/6/3 8/5/3 6/7/3 5/8/3
f 5/8/4 6/7/4 2/9/4 1/10/4
f 3/11/5 7/6/5 5/8/5 1/12/5
f 8/5/6 4/13/6 2/14/6 6/7/6
o Cube.001
v -0.115684 0.738551 0.115684
v -0.115684 1.052848 0.115684
v -0.115684 0.738551 -0.115684
v -0.115684 1.052848 -0.115684
v 0.115684 0.738551 0.115684
v 0.115684 1.052848 0.115684
v 0.115684 0.738551 -0.115684
v 0.115684 1.052848 -0.115684
vn -1.0000 -0.0000 -0.0000
vn -0.0000 -0.0000 -1.0000
vn 1.0000 -0.0000 -0.0000
vn -0.0000 -0.0000 1.0000
vn -0.0000 -1.0000 -0.0000
vn -0.0000 1.0000 -0.0000
vt 0.375000 0.000000
vt 0.625000 0.000000
vt 0.625000 0.250000
vt 0.375000 0.250000
vt 0.625000 0.500000
vt 0.375000 0.500000
vt 0.625000 0.750000
vt 0.375000 0.750000
vt 0.625000 1.000000
vt 0.375000 1.000000
vt 0.125000 0.500000
vt 0.125000 0.750000
vt 0.875000 0.500000
vt 0.875000 0.750000
s 0
usemtl Material.001
f 9/15/7 10/16/7 12/17/7 11/18/7
f 11/18/8 12/17/8 16/19/8 15/20/8
f 15/20/9 16/19/9 14/21/9 13/22/9
f 13/22/10 14/21/10 10/23/10 9/24/10
f 11/25/11 15/20/11 13/22/11 9/26/11
f 16/19/12 12/27/12 10/28/12 14/21/12
o Cube.002
v -0.134079 0.060042 0.063394
v -0.134079 0.186829 0.063394
v -0.134079 0.060042 -0.063394
v -0.134079 0.186829 -0.063394
v -0.007292 0.060042 0.063394
v -0.007292 0.186829 0.063394
v -0.007292 0.060042 -0.063394
v -0.007292 0.186829 -0.063394
vn -1.0000 -0.0000 -0.0000
vn -0.0000 -0.0000 -1.0000
vn 1.0000 -0.0000 -0.0000
vn -0.0000 -0.0000 1.0000
vn -0.0000 -1.0000 -0.0000
vn -0.0000 1.0000 -0.0000
vt 0.375000 0.000000
vt 0.625000 0.000000
vt 0.625000 0.250000
vt 0.375000 0.250000
vt 0.625000 0.500000
vt 0.375000 0.500000
vt 0.625000 0.750000
vt 0.375000 0.750000
vt 0.625000 1.000000
vt 0.375000 1.000000
vt 0.125000 0.500000
vt 0.125000 0.750000
vt 0.875000 0.500000
vt 0.875000 0.750000
s 0
usemtl Material.001
f 17/29/13 18/30/13 20/31/13 19/32/13
f 19/32/14 20/31/14 24/33/14 23/34/14
f 23/34/15 24/33/15 22/35/15 21/36/15
f 21/36/16 22/35/16 18/37/16 17/38/16
f 19/39/17 23/34/17 21/36/17 17/40/17
f 24/33/18 20/41/18 18/42/18 22/35/18
o Cube.003
v 0.024699 0.060042 0.063394
v 0.024699 0.186829 0.063394
v 0.024699 0.060042 -0.063394
v 0.024699 0.186829 -0.063394
v 0.151487 0.060042 0.063394
v 0.151487 0.186829 0.063394
v 0.151487 0.060042 -0.063394
v 0.151487 0.186829 -0.063394
vn -1.0000 -0.0000 -0.0000
vn -0.0000 -0.0000 -1.0000
vn 1.0000 -0.0000 -0.0000
vn -0.0000 -0.0000 1.0000
vn -0.0000 -1.0000 -0.0000
vn -0.0000 1.0000 -0.0000
vt 0.375000 0.000000
vt 0.625000 0.000000
vt 0.625000 0.250000
vt 0.375000 0.250000
vt 0.625000 0.500000
vt 0.375000 0.500000
vt 0.625000 0.750000
vt 0.375000 0.750000
vt 0.625000 1.000000
vt 0.375000 1.000000
vt 0.125000 0.500000
vt 0.125000 0.750000
vt 0.875000 0.500000
vt 0.875000 0.750000
s 0
usemtl Material.001
f 25/43/19 26/44/19 28/45/19 27/46/19
f 27/46/20 28/45/20 32/47/20 31/48/20
f 31/48/21 32/47/21 30/49/21 29/50/21
f 29/50/22 30/49/22 26/51/22 25/52/22
f 27/53/23 31/48/23 29/50/23 25/54/23
f 32/47/24 28/55/24 26/56/24 30/49/24
o Cube.004
v -0.155418 -0.051218 0.190989
v -0.155418 0.051218 0.190989
v -0.155418 -0.051218 -0.064389
v -0.155418 0.051218 -0.064389
v -0.004943 -0.051218 0.190989
v -0.004943 0.051218 0.190989
v -0.004943 -0.051218 -0.064389
v -0.004943 0.051218 -0.064389
vn -1.0000 -0.0000 -0.0000
vn -0.0000 -0.0000 -1.0000
vn 1.0000 -0.0000 -0.0000
vn -0.0000 -0.0000 1.0000
vn -0.0000 -1.0000 -0.0000
vn -0.0000 1.0000 -0.0000
vt 0.375000 0.000000
vt 0.625000 0.000000
vt 0.625000 0.250000
vt 0.375000 0.250000
vt 0.625000 0.500000
vt 0.375000 0.500000
vt 0.625000 0.750000
vt 0.375000 0.750000
vt 0.625000 1.000000
vt 0.375000 1.000000
vt 0.125000 0.500000
vt 0.125000 0.750000
vt 0.875000 0.500000
vt 0.875000 0.750000
s 0
usemtl Material
f 33/57/25 34/58/25 36/59/25 35/60/25
f 35/60/26 36/59/26 40/61/26 39/62/26
f 39/62/27 40/61/27 38/63/27 37/64/27
f 37/64/28 38/63/28 34/65/28 33/66/28
f 35/67/29 39/62/29 37/64/29 33/68/29
f 40/61/30 36/69/30 34/70/30 38/63/30
o Cube.005
v 0.012855 -0.051218 0.190989
v 0.012855 0.051218 0.190989
v 0.012855 -0.051218 -0.064389
v 0.012855 0.051218 -0.064389
v 0.163331 -0.051218 0.190989
v 0.163331 0.051218 0.190989
v 0.163331 -0.051218 -0.064389
v 0.163331 0.051218 -0.064389
vn -1.0000 -0.0000 -0.0000
vn -0.0000 -0.0000 -1.0000
vn 1.0000 -0.0000 -0.0000
vn -0.0000 -0.0000 1.0000
vn -0.0000 -1.0000 -0.0000
vn -0.0000 1.0000 -0.0000
vt 0.375000 0.000000
vt 0.625000 0.000000
vt 0.625000 0.250000
vt 0.375000 0.250000
vt 0.625000 0.500000
vt 0.375000 0.500000
vt 0.625000 0.750000
vt 0.375000 0.750000
vt 0.625000 1.000000
vt 0.375000 1.000000
vt 0.125000 0.500000
vt 0.125000 0.750000
vt 0.875000 0.500000
vt 0.875000 0.750000
s 0
usemtl Material
f 41/71/31 42/72/31 44/73/31 43/74/31
f 43/74/32 44/73/32 48/75/32 47/76/32
f 47/76/33 48/75/33 46/77/33 45/78/33
f 45/78/34 46/77/34 42/79/34 41/80/34
f 43/81/35 47/76/35 45/78/35 41/82/35
f 48/75/36 44/83/36 42/84/36 46/77/36
o Cube.006
v 0.174765 0.525687 0.194797
v 0.174765 0.622336 0.020068
v 0.174765 0.434780 0.144513
v 0.174765 0.531429 -0.030216
v 0.243017 0.525687 0.194797
v 0.243017 0.622336 0.020068
v 0.243017 0.434780 0.144513
v 0.243017 0.531429 -0.030216
vn -1.0000 -0.0000 -0.0000
vn -0.0000 -0.8751 -0.4840
vn 1.0000 -0.0000 -0.0000
vn -0.0000 0.8751 0.4840
vn -0.0000 -0.4840 0.8751
vn -0.0000 0.4840 -0.8751
vt 0.375000 0.000000
vt 0.625000 0.000000
vt 0.625000 0.250000
vt 0.375000 0.250000
vt 0.625000 0.500000
vt 0.375000 0.500000
vt 0.625000 0.750000
vt 0.375000 0.750000
vt 0.625000 1.000000
vt 0.375000 1.000000
vt 0.125000 0.500000
vt 0.125000 0.750000
vt 0.875000 0.500000
vt 0.875000 0.750000
s 0
usemtl Material.001
f 49/85/37 50/86/37 52/87/37 51/88/37
f 51/88/38 52/87/38 56/89/38 55/90/38
f 55/90/39 56/89/39 54/91/39 53/92/39
f 53/92/40 54/91/40 50/93/40 49/94/40
f 51/95/41 55/90/41 53/92/41 49/96/41
f 56/89/42 52/97/42 50/98/42 54/91/42
o Cube.007
v 0.174765 0.414911 0.384698
v 0.174765 0.511560 0.209969
v 0.174765 0.324005 0.334414
v 0.174765 0.420654 0.159685
v 0.243017 0.414911 0.384698
v 0.243017 0.511560 0.209969
v 0.243017 0.324005 0.334414
v 0.243017 0.420654 0.159685
vn -1.0000 -0.0000 -0.0000
vn -0.0000 -0.8751 -0.4840
vn 1.0000 -0.0000 -0.0000
vn -0.0000 0.8751 0.4840
vn -0.0000 -0.4840 0.8751
vn -0.0000 0.4840 -0.8751
vt 0.375000 0.000000
vt 0.625000 0.000000
vt 0.625000 0.250000
vt 0.375000 0.250000
vt 0.625000 0.500000
vt 0.375000 0.500000
vt 0.625000 0.750000
vt 0.375000 0.750000
vt 0.625000 1.000000
vt 0.375000 1.000000
vt 0.125000 0.500000
vt 0.125000 0.750000
vt 0.875000 0.500000
vt 0.875000 0.750000
s 0
usemtl Material.001
f 57/99/43 58/100/43 60/101/43 59/102/43
f 59/102/44 60/101/44 64/103/44 63/104/44
f 63/104/45 64/103/45 62/105/45 61/106/45
f 61/106/46 62/105/46 58/107/46 57/108/46
f 59/109/47 63/104/47 61/106/47 57/110/47
f 64/103/48 60/111/48 58/112/48 62/105/48
o Cube.008
v -0.246182 0.414911 0.384698
v -0.246182 0.511560 0.209969
v -0.246182 0.324005 0.334414
v -0.246182 0.420654 0.159685
v -0.177930 0.414911 0.384698
v -0.177930 0.511560 0.209969
v -0.177930 0.324005 0.334414
v -0.177930 0.420654 0.159685
vn -1.0000 -0.0000 -0.0000
vn -0.0000 -0.8751 -0.4840
vn 1.0000 -0.0000 -0.0000
vn -0.0000 0.8751 0.4840
vn -0.0000 -0.4840 0.8751
vn -0.0000 0.4840 -0.8751
vt 0.375000 0.000000
vt 0.625000 0.000000
vt 0.625000 0.250000
vt 0.375000 0.250000
vt 0.625000 0.500000
vt 0.375000 0.500000
vt 0.625000 0.750000
vt 0.375000 0.750000
vt 0.625000 1.000000
vt 0.375000 1.000000
vt 0.125000 0.500000
vt 0.125000 0.750000
vt 0.875000 0.500000
vt 0.875000 0.750000
s 0
usemtl Material.001
f 65/113/49 66/114/49 68/115/49 67/116/49
f 67/116/50 68/115/50 72/117/50 71/118/50
f 71/118/51 72/117/51 70/119/51 69/120/51
f 69/120/52 70/119/52 66/121/52 65/122/52
f 67/123/53 71/118/53 69/120/53 65/124/53
f 72/117/54 68/125/54 66/126/54 70/119/54
o Cube.009
v -0.246182 0.525687 0.194797
v -0.246182 0.622336 0.020068
v -0.246182 0.434780 0.144513
v -0.246182 0.531429 -0.030216
v -0.177930 0.525687 0.194797
v -0.177930 0.622336 0.020068
v -0.177930 0.434780 0.144513
v -0.177930 0.531429 -0.030216
vn -1.0000 -0.0000 -0.0000
vn -0.0000 -0.8751 -0.4840
vn 1.0000 -0.0000 -0.0000
vn -0.0000 0.8751 0.4840
vn -0.0000 -0.4840 0.8751
vn -0.0000 0.4840 -0.8751
vt 0.375000 0.000000
vt 0.625000 0.000000
vt 0.625000 0.250000
vt 0.375000 0.250000
vt 0.625000 0.500000
vt 0.375000 0.500000
vt 0.625000 0.750000
vt 0.375000 0.750000
vt 0.625000 1.000000
vt 0.375000 1.000000
vt 0.125000 0.500000
vt 0.125000 0.750000
vt 0.875000 0.500000
vt 0.875000 0.750000
s 0
usemtl Material.001
f 73/127/55 74/128/55 76/129/55 75/130/55
f 75/130/56 76/129/56 80/131/56 79/132/56
f 79/132/57 80/131/57 78/133/57 77/134/57
f 77/134/58 78/133/58 74/135/58 73/136/58
f 75/137/59 79/132/59 77/134/59 73/138/59
f 80/131/60 76/139/60 74/140/60 78/133/60
o Cube.010
v 0.000000 0.924475 -0.118802
v -0.119227 1.061064 0.119227
v 0.000000 0.979788 0.118802
v -0.119227 1.061064 -0.119227
v 0.000000 1.061064 0.119227
v 0.119227 1.061064 0.119227
v 0.000000 1.061064 -0.119227
v 0.119227 1.061064 -0.119227
v -0.118802 0.956892 0.118802
v -0.118802 0.956892 -0.118802
v 0.118802 0.956892 -0.118802
v 0.118802 0.956892 0.118802
v -0.059401 0.944317 -0.118802
v -0.059614 1.061064 -0.119227
v -0.059614 1.061064 0.119227
v -0.059401 0.999630 0.118802
v 0.059614 1.061064 -0.119227
v 0.059401 0.999630 0.118802
v 0.059614 1.061064 0.119227
v 0.059401 0.944317 -0.118802
vn -1.0000 -0.0041 -0.0000
vn 0.0004 -0.0039 -1.0000
vn 1.0000 -0.0041 -0.0000
vn 0.0018 -0.0051 1.0000
vn -0.0000 1.0000 -0.0000
vn -0.0006 -0.0034 -1.0000
vn 0.0010 -0.0060 1.0000
vn -0.0004 -0.0039 -1.0000
vn -0.0010 -0.0060 1.0000
vn -0.0018 -0.0051 1.0000
vn 0.0006 -0.0034 -1.0000
vt 0.546460 0.000000
vt 0.625000 0.000000
vt 0.625000 0.250000
vt 0.546460 0.250000
vt 0.546460 0.437500
vt 0.625000 0.437500
vt 0.625000 0.500000
vt 0.546460 0.500000
vt 0.625000 0.750000
vt 0.546460 0.750000
vt 0.546460 0.937500
vt 0.625000 0.937500
vt 0.625000 1.000000
vt 0.546460 1.000000
vt 0.750000 0.500000
vt 0.812500 0.500000
vt 0.812500 0.750000
vt 0.750000 0.750000
vt 0.875000 0.500000
vt 0.875000 0.750000
vt 0.546460 0.312500
vt 0.625000 0.312500
vt 0.625000 0.375000
vt 0.546460 0.375000
vt 0.687500 0.500000
vt 0.687500 0.750000
vt 0.546460 0.812500
vt 0.625000 0.812500
vt 0.625000 0.875000
vt 0.546460 0.875000
s 0
usemtl Material
f 89/141/61 82/142/61 84/143/61 90/144/61
f 100/145/62 97/146/62 88/147/62 91/148/62
f 91/148/63 88/147/63 86/149/63 92/150/63
f 96/151/64 95/152/64 82/153/64 89/154/64
f 87/155/65 94/156/65 95/157/65 85/158/65
f 94/156/65 84/159/65 82/160/65 95/157/65
f 93/161/66 94/162/66 87/163/66 81/164/66
f 97/165/65 87/155/65 85/158/65 99/166/65
f 98/167/67 99/168/67 85/169/67 83/170/67
f 90/144/68 84/143/68 94/162/68 93/161/68
f 83/170/69 85/169/69 95/152/69 96/151/69
f 92/150/70 86/149/70 99/168/70 98/167/70
f 88/147/65 97/165/65 99/166/65 86/149/65
f 81/164/71 87/163/71 97/146/71 100/145/71
o Cone
v -0.096295 1.032498 -0.038988
v -0.065653 1.046679 0.019494
v -0.126937 1.018317 0.019494
v -0.161191 1.172721 0.000000
vn 0.7272 0.4745 -0.4961
vn 0.4200 -0.9075 -0.0000
vn -0.0526 0.1136 0.9921
vn -0.8323 -0.2473 -0.4961
vt 0.250000 0.490000
vt 0.250000 0.250000
vt 0.457846 0.130000
vt 0.750000 0.490000
vt 0.957846 0.130000
vt 0.542154 0.130000
vt 0.042154 0.130000
s 0
usemtl Material
f 101/171/72 104/172/72 102/173/72
f 101/174/73 102/175/73 103/176/73
f 102/173/74 104/172/74 103/177/74
f 103/177/75 104/172/75 101/171/75
o Cone.001
v 0.105154 1.032498 -0.038988
v 0.135796 1.018317 0.019494
v 0.074512 1.046679 0.019494
v 0.172550 1.178123 0.000000
vn 0.8309 -0.2516 -0.4964
vn -0.4200 -0.9075 -0.0000
vn 0.0507 0.1094 0.9927
vn -0.7295 0.4705 -0.4964
vt 0.250000 0.490000
vt 0.250000 0.250000
vt 0.457846 0.130000
vt 0.750000 0.490000
vt 0.957846 0.130000
vt 0.542154 0.130000
vt 0.042154 0.130000
s 0
usemtl Material
f 105/178/76 108/179/76 106/180/76
f 105/181/77 106/182/77 107/183/77
f 106/180/78 108/179/78 107/184/78
f 107/184/79 108/179/79 105/178/79
