# Blender 4.2.1 LTS
# www.blender.org
mtllib zomb.mtl
o Cube
v -0.130026 0.212599 0.137661
v -0.173106 0.712599 0.183271
v -0.130026 0.212599 -0.137661
v -0.173106 0.712599 -0.183271
v 0.130026 0.212599 0.137661
v 0.173106 0.712599 0.183271
v 0.130026 0.212599 -0.137661
v 0.173106 0.712599 -0.183271
vn -0.9963 -0.0858 -0.0000
vn -0.0000 -0.0908 -0.9959
vn 0.9963 -0.0858 -0.0000
vn -0.0000 -0.0908 0.9959
vn -0.0000 -1.0000 -0.0000
vn -0.0000 1.0000 -0.0000
vt 0.375000 0.000000
vt 0.625000 0.000000
vt 0.625000 0.250000
vt 0.375000 0.250000
vt 0.625000 0.500000
vt 0.375000 0.500000
vt 0.625000 0.750000
vt 0.375000 0.750000
vt 0.625000 1.000000
vt 0.375000 1.000000
vt 0.125000 0.500000
vt 0.125000 0.750000
vt 0.875000 0.500000
vt 0.875000 0.750000
s 0
usemtl Material.004
f 1/1/1 2/2/1 4/3/1 3/4/1
f 3/4/2 4/3/2 8/5/2 7/6/2
f 7/6/3 8/5/3 6/7/3 5/8/3
f 5/8/4 6/7/4 2/9/4 1/10/4
f 3/11/5 7/6/5 5/8/5 1/12/5
f 8/5/6 4/13/6 2/14/6 6/7/6
o Cube.001
v -0.115684 0.738551 0.115684
v -0.115684 1.052848 0.115684
v -0.115684 0.738551 -0.115684
v -0.115684 1.052848 -0.115684
v 0.115684 0.738551 0.115684
v 0.115684 1.052848 0.115684
v 0.115684 0.738551 -0.115684
v 0.115684 1.052848 -0.115684
vn -1.0000 -0.0000 -0.0000
vn -0.0000 -0.0000 -1.0000
vn 1.0000 -0.0000 -0.0000
vn -0.0000 -0.0000 1.0000
vn -0.0000 -1.0000 -0.0000
vn -0.0000 1.0000 -0.0000
vt 0.375000 0.000000
vt 0.625000 0.000000
vt 0.625000 0.250000
vt 0.375000 0.250000
vt 0.625000 0.500000
vt 0.375000 0.500000
vt 0.625000 0.750000
vt 0.375000 0.750000
vt 0.625000 1.000000
vt 0.375000 1.000000
vt 0.125000 0.500000
vt 0.125000 0.750000
vt 0.875000 0.500000
vt 0.875000 0.750000
s 0
usemtl Material.004
f 9/15/7 10/16/7 12/17/7 11/18/7
f 11/18/8 12/17/8 16/19/8 15/20/8
f 15/20/9 16/19/9 14/21/9 13/22/9
f 13/22/10 14/21/10 10/23/10 9/24/10
f 11/25/11 15/20/11 13/22/11 9/26/11
f 16/19/12 12/27/12 10/28/12 14/21/12
o Cube.002
v -0.134079 0.060042 0.063394
v -0.134079 0.186829 0.063394
v -0.134079 0.060042 -0.063394
v -0.134079 0.186829 -0.063394
v -0.007292 0.060042 0.063394
v -0.007292 0.186829 0.063394
v -0.007292 0.060042 -0.063394
v -0.007292 0.186829 -0.063394
vn -1.0000 -0.0000 -0.0000
vn -0.0000 -0.0000 -1.0000
vn 1.0000 -0.0000 -0.0000
vn -0.0000 -0.0000 1.0000
vn -0.0000 -1.0000 -0.0000
vn -0.0000 1.0000 -0.0000
vt 0.375000 0.000000
vt 0.625000 0.000000
vt 0.625000 0.250000
vt 0.375000 0.250000
vt 0.625000 0.500000
vt 0.375000 0.500000
vt 0.625000 0.750000
vt 0.375000 0.750000
vt 0.625000 1.000000
vt 0.375000 1.000000
vt 0.125000 0.500000
vt 0.125000 0.750000
vt 0.875000 0.500000
vt 0.875000 0.750000
s 0
usemtl Material.001
f 17/29/13 18/30/13 20/31/13 19/32/13
f 19/32/14 20/31/14 24/33/14 23/34/14
f 23/34/15 24/33/15 22/35/15 21/36/15
f 21/36/16 22/35/16 18/37/16 17/38/16
f 19/39/17 23/34/17 21/36/17 17/40/17
f 24/33/18 20/41/18 18/42/18 22/35/18
o Cube.003
v 0.024699 0.060042 0.063394
v 0.024699 0.186829 0.063394
v 0.024699 0.060042 -0.063394
v 0.024699 0.186829 -0.063394
v 0.151487 0.060042 0.063394
v 0.151487 0.186829 0.063394
v 0.151487 0.060042 -0.063394
v 0.151487 0.186829 -0.063394
vn -1.0000 -0.0000 -0.0000
vn -0.0000 -0.0000 -1.0000
vn 1.0000 -0.0000 -0.0000
vn -0.0000 -0.0000 1.0000
vn -0.0000 -1.0000 -0.0000
vn -0.0000 1.0000 -0.0000
vt 0.375000 0.000000
vt 0.625000 0.000000
vt 0.625000 0.250000
vt 0.375000 0.250000
vt 0.625000 0.500000
vt 0.375000 0.500000
vt 0.625000 0.750000
vt 0.375000 0.750000
vt 0.625000 1.000000
vt 0.375000 1.000000
vt 0.125000 0.500000
vt 0.125000 0.750000
vt 0.875000 0.500000
vt 0.875000 0.750000
s 0
usemtl Material.001
f 25/43/19 26/44/19 28/45/19 27/46/19
f 27/46/20 28/45/20 32/47/20 31/48/20
f 31/48/21 32/47/21 30/49/21 29/50/21
f 29/50/22 30/49/22 26/51/22 25/52/22
f 27/53/23 31/48/23 29/50/23 25/54/23
f 32/47/24 28/55/24 26/56/24 30/49/24
o Cube.004
v -0.155418 -0.051218 0.190989
v -0.155418 0.051218 0.190989
v -0.155418 -0.051218 -0.064389
v -0.155418 0.051218 -0.064389
v -0.004943 -0.051218 0.190989
v -0.004943 0.051218 0.190989
v -0.004943 -0.051218 -0.064389
v -0.004943 0.051218 -0.064389
vn -1.0000 -0.0000 -0.0000
vn -0.0000 -0.0000 -1.0000
vn 1.0000 -0.0000 -0.0000
vn -0.0000 -0.0000 1.0000
vn -0.0000 -1.0000 -0.0000
vn -0.0000 1.0000 -0.0000
vt 0.375000 0.000000
vt 0.625000 0.000000
vt 0.625000 0.250000
vt 0.375000 0.250000
vt 0.625000 0.500000
vt 0.375000 0.500000
vt 0.625000 0.750000
vt 0.375000 0.750000
vt 0.625000 1.000000
vt 0.375000 1.000000
vt 0.125000 0.500000
vt 0.125000 0.750000
vt 0.875000 0.500000
vt 0.875000 0.750000
s 0
usemtl Material.001
f 33/57/25 34/58/25 36/59/25 35/60/25
f 35/60/26 36/59/26 40/61/26 39/62/26
f 39/62/27 40/61/27 38/63/27 37/64/27
f 37/64/28 38/63/28 34/65/28 33/66/28
f 35/67/29 39/62/29 37/64/29 33/68/29
f 40/61/30 36/69/30 34/70/30 38/63/30
o Cube.005
v 0.012855 -0.051218 0.190989
v 0.012855 0.051218 0.190989
v 0.012855 -0.051218 -0.064389
v 0.012855 0.051218 -0.064389
v 0.163331 -0.051218 0.190989
v 0.163331 0.051218 0.190989
v 0.163331 -0.051218 -0.064389
v 0.163331 0.051218 -0.064389
vn -1.0000 -0.0000 -0.0000
vn -0.0000 -0.0000 -1.0000
vn 1.0000 -0.0000 -0.0000
vn -0.0000 -0.0000 1.0000
vn -0.0000 -1.0000 -0.0000
vn -0.0000 1.0000 -0.0000
vt 0.375000 0.000000
vt 0.625000 0.000000
vt 0.625000 0.250000
vt 0.375000 0.250000
vt 0.625000 0.500000
vt 0.375000 0.500000
vt 0.625000 0.750000
vt 0.375000 0.750000
vt 0.625000 1.000000
vt 0.375000 1.000000
vt 0.125000 0.500000
vt 0.125000 0.750000
vt 0.875000 0.500000
vt 0.875000 0.750000
s 0
usemtl Material.001
f 41/71/31 42/72/31 44/73/31 43/74/31
f 43/74/32 44/73/32 48/75/32 47/76/32
f 47/76/33 48/75/33 46/77/33 45/78/33
f 45/78/34 46/77/34 42/79/34 41/80/34
f 43/81/35 47/76/35 45/78/35 41/82/35
f 48/75/36 44/83/36 42/84/36 46/77/36
o Cube.008
v -0.246182 0.463228 0.366294
v -0.246182 0.553369 0.188121
v -0.246182 0.370529 0.319396
v -0.246182 0.460671 0.141223
v -0.177930 0.463228 0.366294
v -0.177930 0.553369 0.188121
v -0.177930 0.370529 0.319396
v -0.177930 0.460671 0.141223
vn -1.0000 -0.0000 -0.0000
vn -0.0000 -0.8923 -0.4514
vn 1.0000 -0.0000 -0.0000
vn -0.0000 0.8923 0.4514
vn -0.0000 -0.4514 0.8923
vn -0.0000 0.4514 -0.8923
vt 0.375000 0.000000
vt 0.625000 0.000000
vt 0.625000 0.250000
vt 0.375000 0.250000
vt 0.625000 0.500000
vt 0.375000 0.500000
vt 0.625000 0.750000
vt 0.375000 0.750000
vt 0.625000 1.000000
vt 0.375000 1.000000
vt 0.125000 0.500000
vt 0.125000 0.750000
vt 0.875000 0.500000
vt 0.875000 0.750000
s 0
usemtl Material.004
f 49/85/37 50/86/37 52/87/37 51/88/37
f 51/88/38 52/87/38 56/89/38 55/90/38
f 55/90/39 56/89/39 54/91/39 53/92/39
f 53/92/40 54/91/40 50/93/40 49/94/40
f 51/95/41 55/90/41 53/92/41 49/96/41
f 56/89/42 52/97/42 50/98/42 54/91/42
o Cube.009
v -0.246182 0.566927 0.172438
v -0.246182 0.657069 -0.005735
v -0.246182 0.474228 0.125540
v -0.246182 0.564370 -0.052633
v -0.177930 0.566927 0.172438
v -0.177930 0.657069 -0.005735
v -0.177930 0.474228 0.125540
v -0.177930 0.564370 -0.052633
vn -1.0000 -0.0000 -0.0000
vn -0.0000 -0.8923 -0.4514
vn 1.0000 -0.0000 -0.0000
vn -0.0000 0.8923 0.4514
vn -0.0000 -0.4514 0.8923
vn -0.0000 0.4514 -0.8923
vt 0.375000 0.000000
vt 0.625000 0.000000
vt 0.625000 0.250000
vt 0.375000 0.250000
vt 0.625000 0.500000
vt 0.375000 0.500000
vt 0.625000 0.750000
vt 0.375000 0.750000
vt 0.625000 1.000000
vt 0.375000 1.000000
vt 0.125000 0.500000
vt 0.125000 0.750000
vt 0.875000 0.500000
vt 0.875000 0.750000
s 0
usemtl Material.004
f 57/99/43 58/100/43 60/101/43 59/102/43
f 59/102/44 60/101/44 64/103/44 63/104/44
f 63/104/45 64/103/45 62/105/45 61/106/45
f 61/106/46 62/105/46 58/107/46 57/108/46
f 59/109/47 63/104/47 61/106/47 57/110/47
f 64/103/48 60/111/48 58/112/48 62/105/48
o Cube.010
v 0.000000 0.881193 -0.118802
v -0.119227 1.061064 0.119227
v 0.000000 0.936506 0.118802
v -0.119227 1.061064 -0.119227
v 0.000000 1.061064 0.119227
v 0.119227 1.061064 0.119227
v 0.000000 1.061064 -0.119227
v 0.119227 1.061064 -0.119227
v -0.118802 0.913610 0.118802
v -0.118802 0.913610 -0.118802
v 0.118802 0.913610 -0.118802
v 0.118802 0.913610 0.118802
v -0.059401 0.901035 -0.118802
v -0.059614 1.061064 -0.119227
v -0.059614 1.061064 0.119227
v -0.059401 0.956348 0.118802
v 0.059614 1.061064 -0.119227
v 0.059401 0.956348 0.118802
v 0.059614 1.061064 0.119227
v 0.059401 0.901035 -0.118802
vn -1.0000 -0.0029 -0.0000
vn 0.0003 -0.0028 -1.0000
vn 1.0000 -0.0029 -0.0000
vn 0.0012 -0.0034 1.0000
vn -0.0000 1.0000 -0.0000
vn -0.0004 -0.0025 -1.0000
vn 0.0006 -0.0037 1.0000
vn -0.0003 -0.0028 -1.0000
vn -0.0006 -0.0037 1.0000
vn -0.0012 -0.0034 1.0000
vn 0.0004 -0.0025 -1.0000
vt 0.546460 0.000000
vt 0.625000 0.000000
vt 0.625000 0.250000
vt 0.546460 0.250000
vt 0.546460 0.437500
vt 0.625000 0.437500
vt 0.625000 0.500000
vt 0.546460 0.500000
vt 0.625000 0.750000
vt 0.546460 0.750000
vt 0.546460 0.937500
vt 0.625000 0.937500
vt 0.625000 1.000000
vt 0.546460 1.000000
vt 0.750000 0.500000
vt 0.812500 0.500000
vt 0.812500 0.750000
vt 0.750000 0.750000
vt 0.875000 0.500000
vt 0.875000 0.750000
vt 0.546460 0.312500
vt 0.625000 0.312500
vt 0.625000 0.375000
vt 0.546460 0.375000
vt 0.687500 0.500000
vt 0.687500 0.750000
vt 0.546460 0.812500
vt 0.625000 0.812500
vt 0.625000 0.875000
vt 0.546460 0.875000
s 0
usemtl Material.001
f 73/113/49 66/114/49 68/115/49 74/116/49
f 84/117/50 81/118/50 72/119/50 75/120/50
f 75/120/51 72/119/51 70/121/51 76/122/51
f 80/123/52 79/124/52 66/125/52 73/126/52
f 71/127/53 78/128/53 79/129/53 69/130/53
f 78/128/53 68/131/53 66/132/53 79/129/53
f 77/133/54 78/134/54 71/135/54 65/136/54
f 81/137/53 71/127/53 69/130/53 83/138/53
f 82/139/55 83/140/55 69/141/55 67/142/55
f 74/116/56 68/115/56 78/134/56 77/133/56
f 67/142/57 69/141/57 79/124/57 80/123/57
f 76/122/58 70/121/58 83/140/58 82/139/58
f 72/119/53 81/137/53 83/138/53 70/121/53
f 65/136/59 71/135/59 81/118/59 84/117/59
o Cube.012
v -0.132443 0.207648 0.140220
v -0.132443 0.207648 -0.140220
v 0.132443 0.207648 0.140220
v 0.132443 0.207648 -0.140220
v 0.067200 0.207648 -0.140220
v 0.089465 0.716943 -0.186678
v 0.067200 0.207648 0.140220
v 0.089465 0.716943 0.186678
v 0.095255 0.207648 -0.140220
v 0.126814 0.716943 -0.186678
v 0.095255 0.207648 0.140220
v 0.126814 0.716943 0.186678
v -0.088078 0.207648 -0.140220
v -0.104011 0.716943 -0.186678
v -0.088078 0.207648 0.140220
v -0.104011 0.716943 0.186678
v -0.112870 0.207648 -0.140220
v -0.150266 0.716943 -0.186678
v -0.112870 0.207648 0.140220
v -0.150266 0.716943 0.186678
v -0.165983 0.579214 0.177789
v -0.165983 0.579214 -0.177789
v 0.166358 0.579214 -0.177789
v 0.166358 0.579214 0.177789
v 0.084501 0.579214 0.177789
v 0.084501 0.579214 -0.177789
v 0.119700 0.579214 0.177789
v 0.119700 0.579214 -0.177789
v -0.096536 0.579214 -0.177789
v -0.096536 0.579214 0.177789
v -0.141426 0.579214 -0.177789
v -0.141426 0.579214 0.177789
v -0.010439 0.207648 -0.140220
v -0.010439 0.207648 0.140220
v 0.000875 0.579214 0.177789
v 0.000875 0.579214 -0.177789
v 0.083566 0.636965 0.181308
v 0.083566 0.636965 -0.181308
v 0.118453 0.636965 0.181308
v 0.118453 0.636965 -0.181308
v -0.096280 0.636965 -0.181308
v -0.096280 0.636965 0.181308
v -0.140359 0.636965 -0.181308
v -0.140359 0.636965 0.181308
v 0.177604 0.716943 -0.186678
v 0.177604 0.716943 0.186678
v -0.178973 0.716943 -0.186678
v -0.178973 0.716943 0.186678
v -0.165983 0.579214 0.177789
v -0.165983 0.579214 -0.177789
v 0.166358 0.579214 -0.177789
v 0.166358 0.579214 0.177789
v 0.084501 0.579214 0.177789
v 0.084501 0.579214 -0.177789
v 0.119700 0.579214 0.177789
v 0.119700 0.579214 -0.177789
v -0.096536 0.579214 -0.177789
v -0.096536 0.579214 0.177789
v -0.141426 0.579214 -0.177789
v -0.141426 0.579214 0.177789
v 0.000875 0.579214 0.177789
v 0.000875 0.579214 -0.177789
vn -0.0000 -1.0000 -0.0000
vn -0.0000 1.0000 -0.0000
vn -0.0000 -0.0670 0.9978
vn -0.0000 -0.0670 -0.9978
vn -0.0000 -0.1006 0.9949
vn -0.0000 -0.1006 -0.9949
vn 0.9959 -0.0909 -0.0000
vn -0.9960 -0.0899 -0.0000
vn -0.0000 -0.0608 0.9981
vn -0.0000 -0.0608 -0.9981
vn 0.9967 -0.0814 -0.0000
vn -0.0025 -0.0651 0.9979
vn -0.0025 -0.0651 -0.9979
vn -0.9956 -0.0939 -0.0000
vn 0.0043 -0.0649 0.9979
vn 0.0043 -0.0649 -0.9979
vn -0.0000 -0.0654 -0.9979
vt 0.339901 0.500000
vt 0.375000 0.500000
vt 0.375000 0.750000
vt 0.339902 0.750000
vt 0.660098 0.500000
vt 0.686576 0.500000
vt 0.686576 0.750000
vt 0.660099 0.750000
vt 0.240148 0.500000
vt 0.313424 0.500000
vt 0.313424 0.750000
vt 0.240148 0.750000
vt 0.558768 0.785099
vt 0.625000 0.785098
vt 0.625000 0.811576
vt 0.558768 0.811576
vt 0.558768 0.438424
vt 0.625000 0.438424
vt 0.625000 0.464901
vt 0.558768 0.464901
vt 0.558768 0.268473
vt 0.625000 0.268473
vt 0.625000 0.291872
vt 0.558768 0.291872
vt 0.143473 0.500000
vt 0.166872 0.500000
vt 0.166872 0.750000
vt 0.143473 0.750000
vt 0.125000 0.500000
vt 0.125000 0.750000
vt 0.833128 0.500000
vt 0.856527 0.500000
vt 0.856527 0.750000
vt 0.833128 0.750000
vt 0.558768 0.958128
vt 0.625000 0.958128
vt 0.625000 0.981527
vt 0.558768 0.981527
vt 0.375000 0.958128
vt 0.530420 0.958128
vt 0.530420 0.981527
vt 0.375000 0.981527
vt 0.375000 0.250000
vt 0.530420 0.250000
vt 0.530420 0.268473
vt 0.375000 0.268473
vt 0.375000 0.884852
vt 0.530420 0.884852
vt 0.530420 0.291872
vt 0.375000 0.291872
vt 0.375000 0.438424
vt 0.530420 0.438424
vt 0.530420 0.464901
vt 0.375000 0.464901
vt 0.530420 0.750000
vt 0.530420 0.785099
vt 0.375000 0.785099
vt 0.375000 0.365148
vt 0.530420 0.365148
vt 0.530420 0.811576
vt 0.375000 0.811576
vt 0.530420 1.000000
vt 0.375000 1.000000
vt 0.530420 0.500000
vt 0.375000 0.000000
vt 0.530420 0.000000
s 0
usemtl Material
f 93/143/60 88/144/60 87/145/60 95/146/60
f 94/147/61 90/148/61 92/149/61 96/150/61
f 117/151/60 89/152/60 91/153/60 118/154/60
f 123/155/62 96/156/62 92/157/62 121/158/62
f 89/152/60 93/143/60 95/146/60 91/153/60
f 122/159/63 90/160/63 94/161/63 124/162/63
f 127/163/63 102/164/63 98/165/63 125/166/63
f 101/167/60 97/168/60 99/169/60 103/170/60
f 86/171/60 101/167/60 103/170/60 85/172/60
f 98/173/61 102/174/61 104/175/61 100/176/61
f 126/177/62 100/178/62 104/179/62 128/180/62
f 99/181/64 114/182/64 116/183/64 103/184/64
f 86/185/65 106/186/65 115/187/65 101/188/65
f 118/189/64 119/190/64 114/182/64 99/181/64
f 101/188/65 115/187/65 113/191/65 97/192/65
f 89/193/65 110/194/65 112/195/65 93/196/65
f 87/145/64 108/197/64 111/198/64 95/199/64
f 117/200/65 120/201/65 110/194/65 89/193/65
f 95/199/64 111/198/64 109/202/64 91/203/64
f 103/184/64 116/183/64 105/204/64 85/205/64
f 88/144/66 107/206/66 108/197/66 87/145/66
f 93/196/65 112/195/65 107/206/65 88/144/65
f 85/207/67 105/208/67 106/186/67 86/185/67
f 97/192/65 113/191/65 120/201/65 117/200/65
f 91/203/64 109/202/64 119/190/64 118/189/64
f 97/168/60 117/151/60 118/154/60 99/169/60
f 114/182/68 126/177/68 128/180/68 116/183/68
f 115/187/69 127/163/69 125/166/69 113/191/69
f 110/194/69 122/159/69 124/162/69 112/195/69
f 111/198/68 123/155/68 121/158/68 109/202/68
f 126/177/68 114/182/68 119/190/68
f 121/158/68 119/190/68 109/202/68
f 125/166/69 120/201/69 113/191/69
f 122/159/69 110/194/69 120/201/69
f 112/195/69 124/162/69 107/206/69
f 115/187/69 106/186/69 127/163/69
f 116/183/68 128/180/68 105/204/68
f 111/198/68 108/197/68 123/155/68
f 94/147/61 96/150/61 130/150/61 129/147/61
f 108/197/70 107/206/70 129/147/70 130/150/70
f 96/150/71 123/155/71 108/197/71 130/150/71
f 94/147/72 129/147/72 107/206/72 124/162/72
f 104/175/61 102/174/61 131/174/61 132/175/61
f 105/208/73 132/175/73 131/174/73 106/186/73
f 104/175/74 132/175/74 105/208/74 128/180/74
f 102/174/75 127/163/75 106/186/75 131/174/75
f 90/160/76 122/159/76 120/201/76 125/166/76 98/165/76
l 142 144
l 134 143
l 142 145
l 141 143
l 138 140
l 136 139
l 138 146
l 137 139
l 133 144
l 135 136
l 135 140
l 133 134
l 141 146
l 137 145
o Cube.006
v 0.185009 0.566927 0.172438
v 0.185009 0.657069 -0.005735
v 0.185009 0.474228 0.125540
v 0.185009 0.564370 -0.052633
v 0.253261 0.566927 0.172438
v 0.253261 0.657069 -0.005735
v 0.253261 0.474228 0.125540
v 0.253261 0.564370 -0.052633
vn -1.0000 -0.0000 -0.0000
vn -0.0000 -0.8923 -0.4514
vn 1.0000 -0.0000 -0.0000
vn -0.0000 0.8923 0.4514
vn -0.0000 -0.4514 0.8923
vn -0.0000 0.4514 -0.8923
vt 0.375000 0.000000
vt 0.625000 0.000000
vt 0.625000 0.250000
vt 0.375000 0.250000
vt 0.625000 0.500000
vt 0.375000 0.500000
vt 0.625000 0.750000
vt 0.375000 0.750000
vt 0.625000 1.000000
vt 0.375000 1.000000
vt 0.125000 0.500000
vt 0.125000 0.750000
vt 0.875000 0.500000
vt 0.875000 0.750000
s 0
usemtl Material.002
f 147/209/77 148/210/77 150/211/77 149/212/77
f 149/212/78 150/211/78 154/213/78 153/214/78
f 153/214/79 154/213/79 152/215/79 151/216/79
f 151/216/80 152/215/80 148/217/80 147/218/80
f 149/219/81 153/214/81 151/216/81 147/220/81
f 154/213/82 150/221/82 148/222/82 152/215/82
o Cube.007
v 0.185009 0.463228 0.366294
v 0.185009 0.553369 0.188121
v 0.185009 0.370529 0.319396
v 0.185009 0.460671 0.141223
v 0.253261 0.463228 0.366294
v 0.253261 0.553369 0.188121
v 0.253261 0.370529 0.319396
v 0.253261 0.460671 0.141223
vn -1.0000 -0.0000 -0.0000
vn -0.0000 -0.8923 -0.4514
vn 1.0000 -0.0000 -0.0000
vn -0.0000 0.8923 0.4514
vn -0.0000 -0.4514 0.8923
vn -0.0000 0.4514 -0.8923
vt 0.375000 0.000000
vt 0.625000 0.000000
vt 0.625000 0.250000
vt 0.375000 0.250000
vt 0.625000 0.500000
vt 0.375000 0.500000
vt 0.625000 0.750000
vt 0.375000 0.750000
vt 0.625000 1.000000
vt 0.375000 1.000000
vt 0.125000 0.500000
vt 0.125000 0.750000
vt 0.875000 0.500000
vt 0.875000 0.750000
s 0
usemtl Material.002
f 155/223/83 156/224/83 158/225/83 157/226/83
f 157/226/84 158/225/84 162/227/84 161/228/84
f 161/228/85 162/227/85 160/229/85 159/230/85
f 159/230/86 160/229/86 156/231/86 155/232/86
f 157/233/87 161/228/87 159/230/87 155/234/87
f 162/227/88 158/235/88 156/236/88 160/229/88
