# Blender 4.2.1 LTS
# www.blender.org
mtllib bigWall.mtl
o Cube
v -1.178973 0.000000 2.000000
v -2.000000 0.000000 1.178973
v -1.430492 1.566055 0.790712
v -0.668109 2.668706 1.729806
v -2.000000 0.000000 -1.178973
v -1.178973 0.000000 -2.000000
v -0.718911 1.132128 -1.346273
v -1.619027 2.025689 -0.538524
v 2.000000 0.000000 1.178973
v 1.178973 0.000000 2.000000
v 0.838231 2.225140 1.640266
v 1.483070 1.420083 0.648292
v 1.178973 0.000000 -2.000000
v 2.000000 0.000000 -1.178973
v 1.602600 2.027870 -0.877113
v 0.641615 1.369798 -1.499278
vn 0.0375 0.1263 0.9913
vn 0.9630 0.2600 0.0703
vn 0.0152 0.9636 -0.2670
vn -0.9650 0.2497 0.0805
vn -0.0639 0.4165 -0.9069
vn -0.7946 0.2860 0.5356
vn -0.4867 0.4391 -0.7552
vn 0.5180 0.3290 -0.7896
vn 0.8017 0.3130 0.5092
vn -0.0000 -1.0000 -0.0000
vt 0.375000 0.801314
vt 0.625000 0.801314
vt 0.625000 0.948686
vt 0.375000 0.948686
vt 0.375000 0.551314
vt 0.625000 0.551314
vt 0.625000 0.698686
vt 0.375000 0.698686
vt 0.676314 0.500000
vt 0.823686 0.500000
vt 0.875000 0.551314
vt 0.875000 0.698686
vt 0.823686 0.750000
vt 0.676314 0.750000
vt 0.375000 0.051314
vt 0.625000 0.051314
vt 0.625000 0.198686
vt 0.375000 0.198686
vt 0.375000 0.301314
vt 0.625000 0.301314
vt 0.625000 0.448686
vt 0.375000 0.448686
vt 0.375000 0.000000
vt 0.625000 0.000000
vt 0.125000 0.551314
vt 0.176314 0.500000
vt 0.323686 0.500000
vt 0.323686 0.750000
vt 0.176314 0.750000
vt 0.125000 0.698686
s 0
usemtl Material
f 10/1/1 11/2/1 4/3/1 1/4/1
f 14/5/2 15/6/2 12/7/2 9/8/2
f 15/6/3 16/9/3 7/10/3 8/11/3 3/12/3 4/13/3 11/14/3 12/7/3
f 2/15/4 3/16/4 8/17/4 5/18/4
f 6/19/5 7/20/5 16/21/5 13/22/5
f 1/23/6 4/24/6 3/16/6 2/15/6
f 7/20/7 6/19/7 5/18/7 8/17/7
f 15/6/8 14/5/8 13/22/8 16/21/8
f 11/2/9 10/1/9 9/8/9 12/7/9
f 5/25/10 6/26/10 13/27/10 14/5/10 9/8/10 10/28/10 1/29/10 2/30/10
