# Blender 4.2.1 LTS
# www.blender.org
mtllib smallWall.mtl
o Cube
v -0.589487 0.000000 1.000000
v -1.000000 0.000000 0.589487
v -0.740508 0.851551 0.408614
v -0.311202 0.673740 0.746937
v -1.000000 0.000000 -0.589487
v -0.589487 0.000000 -1.000000
v -0.348551 0.382692 -0.682740
v -0.729087 0.619847 -0.327923
v 1.000000 0.000000 0.589487
v 0.589487 0.000000 1.000000
v 0.346780 0.576647 0.712933
v 0.734196 0.730873 0.327654
v 0.589487 0.000000 -1.000000
v 1.000000 0.000000 -0.589487
v 0.668230 0.580484 -0.358457
v 0.272776 0.528644 -0.720648
vn 0.0379 0.3954 0.9177
vn 0.9086 0.4125 -0.0654
vn 0.0397 0.9896 -0.1381
vn -0.9389 0.3410 -0.0468
vn -0.0617 0.5431 -0.8374
vn -0.5599 0.4033 0.7237
vn -0.4506 0.6076 -0.6540
vn 0.5381 0.5911 -0.6009
vn 0.5630 0.4964 0.6608
vn -0.0000 -1.0000 -0.0000
vt 0.375000 0.801314
vt 0.625000 0.801314
vt 0.625000 0.948686
vt 0.375000 0.948686
vt 0.375000 0.551314
vt 0.625000 0.551314
vt 0.625000 0.698686
vt 0.375000 0.698686
vt 0.676314 0.500000
vt 0.823686 0.500000
vt 0.875000 0.551314
vt 0.875000 0.698686
vt 0.823686 0.750000
vt 0.676314 0.750000
vt 0.375000 0.051314
vt 0.625000 0.051314
vt 0.625000 0.198686
vt 0.375000 0.198686
vt 0.375000 0.301314
vt 0.625000 0.301314
vt 0.625000 0.448686
vt 0.375000 0.448686
vt 0.375000 0.000000
vt 0.625000 0.000000
vt 0.125000 0.551314
vt 0.176314 0.500000
vt 0.323686 0.500000
vt 0.323686 0.750000
vt 0.176314 0.750000
vt 0.125000 0.698686
s 0
usemtl Material
f 10/1/1 11/2/1 4/3/1 1/4/1
f 14/5/2 15/6/2 12/7/2 9/8/2
f 15/6/3 16/9/3 7/10/3 8/11/3 3/12/3 4/13/3 11/14/3 12/7/3
f 2/15/4 3/16/4 8/17/4 5/18/4
f 6/19/5 7/20/5 16/21/5 13/22/5
f 1/23/6 4/24/6 3/16/6 2/15/6
f 7/20/7 6/19/7 5/18/7 8/17/7
f 15/6/8 14/5/8 13/22/8 16/21/8
f 11/2/9 10/1/9 9/8/9 12/7/9
f 5/25/10 6/26/10 13/27/10 14/5/10 9/8/10 10/28/10 1/29/10 2/30/10
